<?xml version="1.0" encoding="utf-8"?>
<!-- Generator: Adobe Illustrator 16.0.0, SVG Export Plug-In . SVG Version: 6.00 Build 0)  -->
<!DOCTYPE svg PUBLIC "-//W3C//DTD SVG 1.1//EN" "http://www.w3.org/Graphics/SVG/1.1/DTD/svg11.dtd">
<svg version="1.1" id="Layer_1" xmlns="http://www.w3.org/2000/svg" xmlns:xlink="http://www.w3.org/1999/xlink" x="0px" y="0px"
	 width="481.89px" height="255.116px" viewBox="0 0 481.89 255.116" enable-background="new 0 0 481.89 255.116"
	 xml:space="preserve">
<g>
	<defs>
		<rect id="SVGID_1_" width="481.89" height="255.116"/>
	</defs>
	<clipPath id="SVGID_2_">
		<use xlink:href="#SVGID_1_"  overflow="visible"/>
	</clipPath>
	<path clip-path="url(#SVGID_2_)" fill="#FFFFFF" d="M150.458,133.872c-1.434,2.481-3.087,3.273-3.874,3.52
		c-0.12,0.038-0.215,0.117-0.273,0.219c-0.058,0.101-0.079,0.223-0.052,0.347c0.18,0.805,0.319,2.631-1.115,5.113
		c-1.814,3.143-5.758,5.241-9.969,2.81c-4.386-2.534-4.601-9.848-4.523-13.373c0.006-0.231,0.169-0.411,0.39-0.477
		c0.633-0.187,1.219-0.523,1.703-1c0.201-0.198,0.507-0.223,0.723-0.041c1.044,0.878,2.084,2.276,2.544,2.934
		c0.141,0.201,0.405,0.243,0.62,0.123c0.878-0.482,1.71-0.514,2.289-0.441c0.109,0.014,0.199-0.041,0.245-0.121
		s0.048-0.186-0.017-0.273c-0.352-0.464-0.74-1.202-0.761-2.203c-0.006-0.245-0.173-0.455-0.417-0.476
		c-0.799-0.069-2.533-0.271-3.813-0.737c-0.266-0.097-0.397-0.374-0.326-0.646c0.171-0.657,0.171-1.333,0.016-1.975
		c-0.055-0.224,0.021-0.456,0.218-0.576c3.014-1.829,9.457-5.298,13.843-2.765C152.12,126.264,152.271,130.728,150.458,133.872
		 M126.474,125.266c0.203,0.112,0.44,0.061,0.608-0.099c0.478-0.455,1.062-0.793,1.718-0.973c0.271-0.075,0.446-0.328,0.397-0.605
		c-0.237-1.342-0.93-2.944-1.268-3.671c-0.104-0.223-0.007-0.472,0.204-0.599c0.856-0.518,1.3-1.224,1.527-1.76
		c0.043-0.102,0.135-0.152,0.228-0.152c0.092,0,0.184,0.05,0.227,0.152c0.227,0.536,0.671,1.242,1.527,1.76
		c0.21,0.128,0.307,0.377,0.204,0.599c-0.339,0.727-1.033,2.329-1.27,3.671c-0.049,0.278,0.126,0.53,0.398,0.606
		c0.653,0.18,1.239,0.518,1.717,0.973c0.168,0.16,0.406,0.211,0.608,0.099c3.092-1.694,9.319-5.537,9.32-10.602
		c0.001-4.863-3.789-7.228-7.418-7.229c-2.867,0-4.379,1.034-4.987,1.592c-0.093,0.086-0.209,0.128-0.325,0.127
		c-0.116,0-0.232-0.042-0.326-0.127c-0.607-0.558-2.118-1.593-4.985-1.593c-3.629-0.001-7.419,2.363-7.42,7.226
		C117.157,119.727,123.381,123.571,126.474,125.266 M128.727,132.029c-0.632-0.187-1.218-0.524-1.701-1.001
		c-0.201-0.196-0.507-0.223-0.723-0.041c-1.044,0.876-2.085,2.277-2.545,2.934c-0.141,0.202-0.405,0.242-0.62,0.123
		c-0.878-0.483-1.71-0.515-2.289-0.442c-0.109,0.013-0.199-0.042-0.245-0.121c-0.046-0.081-0.048-0.186,0.017-0.273
		c0.353-0.463,0.741-1.202,0.763-2.202c0.004-0.246,0.172-0.455,0.416-0.477c0.798-0.069,2.532-0.27,3.813-0.735
		c0.265-0.097,0.397-0.375,0.326-0.647c-0.171-0.656-0.17-1.333-0.015-1.974c0.054-0.225-0.021-0.456-0.219-0.576
		c-3.013-1.83-9.454-5.302-13.841-2.769c-4.211,2.43-4.366,6.894-2.552,10.038c1.433,2.483,3.084,3.275,3.873,3.522
		c0.12,0.037,0.215,0.117,0.272,0.218c0.058,0.102,0.08,0.223,0.052,0.347c-0.179,0.805-0.32,2.632,1.113,5.113
		c1.814,3.144,5.758,5.244,9.969,2.813c4.387-2.531,4.604-9.846,4.526-13.37C129.112,132.276,128.949,132.095,128.727,132.029
		 M132.345,128.124c0-1.358-1.1-2.459-2.458-2.459c-1.359,0-2.459,1.1-2.46,2.458c0,1.358,1.101,2.459,2.459,2.459
		C131.244,130.583,132.345,129.481,132.345,128.124 M382.811,112.917v0.516c0,0.689-0.161,1.376-0.505,2.065l-10.772,23.22
		c-2.665,5.85-8.762,9.806-15.384,9.806h-2.925h-20.102c-1.031,0-1.976-0.172-2.837-0.518c-4.301-1.546-6.709-6.621-4.559-11.18
		l8.084-17.458c3.44-7.396,10.836-11.611,18.32-11.611h0.944h24.315C380.402,107.757,382.724,110.166,382.811,112.917
		 M366.579,113.606h-12.556c-0.344,0-0.688,0-0.947,0.085c-1.462,0.259-2.667,1.29-3.268,2.581l-11.354,24.425
		c-0.429,0.946,0.261,1.979,1.29,1.979h12.3c1.689,0,3.508-1.464,4.129-2.666l11.524-24.683
		C368.128,114.552,367.524,113.606,366.579,113.606 M160.424,128.14c0,16.866-13.673,30.539-30.539,30.539
		c-16.866,0-30.539-13.673-30.539-30.539c0-16.866,13.673-30.538,30.539-30.538C146.751,97.602,160.424,111.274,160.424,128.14
		 M155.001,128.14c0-13.871-11.244-25.116-25.116-25.116c-13.872,0-25.117,11.245-25.117,25.116
		c0,13.872,11.245,25.116,25.117,25.116C143.757,153.256,155.001,142.012,155.001,128.14 M274.313,142.675h-4.091h-8.208
		c-1.031,0-1.719-1.032-1.29-1.979l11.353-24.425c0.604-1.291,1.807-2.322,3.269-2.581c0.258-0.085,0.603-0.085,0.947-0.085h12.556
		c0.946,0,1.548,0.946,1.119,1.72l-1.858,3.978h14.699l1.777-3.806c0.344-0.689,0.516-1.376,0.516-2.065v-0.516
		c-0.087-2.751-2.408-5.16-5.419-5.16h-24.337h-0.946c-7.483,0-14.879,4.215-18.319,11.611l-8.137,17.458
		c-2.148,4.559,0.313,9.634,4.613,11.18c0.859,0.346,1.804,0.518,2.835,0.518h14.831h18.993l2.715-5.849h-2.207H274.313z
		 M314.057,140.529l12.555-26.936l6.308,0.012l2.751-5.849l-6.334-0.006l4.753-10.142h-3.75h-11.021l-4.731,10.148l-3.993-0.006
		l-2.724,5.843l3.966,0.012l-8.86,19.007l-1.977,4.213c-1.636,3.439-0.603,7.31,1.977,9.547c1.377,1.291,3.269,2.15,5.418,2.15
		h8.256l2.736-5.868l-4.134,0.02C314.307,142.675,313.625,141.475,314.057,140.529 M188.14,107.75l-2.755,5.855h3.951
		l-16.445,35.174c-0.86,1.893-3.096,4.043-6.451,4.043h-3.341l-2.727,5.848h10.319c6.279,0,13.93-3.188,17.648-11.274l18.445-39.647
		L188.14,107.75z M253.844,115.498l-15.37,33.026h-33.822c-1.032,0-1.976-0.172-2.838-0.518c-4.3-1.547-6.708-6.621-4.558-11.179
		l1.803-3.881c2.703-5.81,10.516-9.965,17.437-9.965h16.101c0.345,0,0.684,0,1-0.092c1.112-0.278,2.22-1.002,2.879-1.877
		c0.125-0.167,0.247-0.339,0.345-0.513l2.382-5.117c0.539-0.91-0.266-1.776-1.095-1.776h-12.556c-0.345,0-0.689,0-0.947,0.085
		c-1.463,0.259-2.667,1.291-3.268,2.58l-1.409,3.034h-14.557c3.452-7.358,10.826-11.548,18.288-11.548h0.946h18.083h6.254
		c3.011,0,5.331,2.408,5.418,5.16v0.517C254.359,114.122,254.188,114.809,253.844,115.498 M232.891,128.895h-14.509
		c-1.506,0-3.427,1.106-3.829,2.007l-4.569,9.796c-0.453,0.994,0.332,1.977,1.254,1.977l12.415,0.001
		c1.442,0,3.463-1.353,4.145-2.873L232.891,128.895z"/>
</g>
</svg>
